Patient4_TMGait_0pt8_01_right_21_EMG.mot
version=1
nRows=23
nColumns=33
inDegrees=no
endheader
time	1LAddLong	2LGlutMax	3LGlutMed	4LIliopsoas	5LSemiMemb	6LBicFemLong	7LRecFem	8LVastMed	9LVastLat	10LGasMed	11LTibAnt	12lTibPost	13LPeroneusLong	14LSol	15LExtDigLong	16LFlexDigLong	17RAddLong	18RGlutMax	19RGlutMed	20RIliopsoas	21RSemiMemb	22RBicFemLong	23RRecFem	24RVastMed	25RVastLat	26RGasMed	27RTibAnt	28RTibPost	29RPeroneusLong	30RSol	31RExtDigLong	32RFlexDigLong
23.765	-0.010529	-0.15152	-0.18402	-0.003967	-0.00351	-0.024719	0.17975	-0.004425	0.00885	-0.055084	-0.13321	-0.000916	-0.096893	0.069885	-0.32318	-0.01358	-0.028229	0.10559	-0.28137	0.012054	0.121	-0.070038	-0.036926	0.089417	-0.022736	0.088806	0.081787	-0.27802	-0.33356	0.43045	-0.003204	-0.024261
23.766	-0.016327	-0.09079	-0.14435	-0.007782	0.006866	-0.041504	0.23209	-0.000153	-0.015564	-0.05127	-0.088806	0.010223	-0.097504	0.075378	-0.16892	-0.020752	0.029907	0.049744	-0.97427	0.094299	-0.084076	-0.15457	-0.055237	0.037231	0.065308	0.005341	0.081635	-0.40131	-0.64209	0.37781	-0.001526	-0.008392
23.767	-0.012665	-0.029144	-0.121	-0.014191	0.010986	-0.012207	0.27573	0.007629	-0.041351	-0.050812	-0.065002	0.00824	-0.041962	0.005341	-0.17578	-0.019226	0.10452	-0.059509	-1.0332	0.055542	-0.15549	-0.22003	0.033264	0.005951	0.038147	-0.039063	0.094452	-0.20401	-0.44525	0.2272	-0.001373	-0.015411
23.768	-0.007172	0.052185	-0.13412	-0.009308	0.018463	-0.000916	0.25864	0.010529	-0.039673	-0.07019	-0.11032	-0.004272	0.018005	0.022736	-0.062256	-0.019073	0.14389	-0.14587	-0.63568	0.002747	0.042419	-0.17425	0.13397	-0.016937	-0.03952	-0.04303	0.12161	0.20798	0.21103	0.39017	-0.002136	-0.013428
23.769	-0.010376	0.050354	-0.15686	0.009613	0.039215	-0.0177	0.21606	0.005188	-0.050201	-0.044556	-0.10269	-0.005951	-0.007324	-0.018005	0.080414	-0.017548	0.12451	-0.2092	-0.85144	-0.11932	0.11978	0.2385	0.20325	-0.093842	-0.021057	-0.034485	0.11322	0.17349	0.69931	0.42007	-0.001221	-0.013885
23.77	-0.013123	0.075226	-0.088806	0.000305	0.030823	-0.001526	0.24948	0.007019	-0.065765	-0.017395	-0.065155	-0.000305	-0.063477	-0.033569	0.2536	-0.007324	-0.021973	-0.26108	-0.64529	-0.18066	-0.052185	0.43091	0.2211	-0.048523	-0.036621	0.001831	0.049896	-0.18799	0.66193	0.14221	-0.005646	-0.009155
23.771	-0.006561	0.13931	-0.036316	0.002441	0.0177	-0.015717	0.23666	0.006256	-0.079651	-0.036926	-0.09613	-0.005188	-0.029755	0.00824	0.09079	-0.019379	-0.005493	-0.38498	-1.1044	-0.13229	-0.15381	0.3154	0.38574	-0.14053	-0.14404	0.037689	-0.06073	-0.067596	0.44784	-0.11078	-0.002747	-0.010376
23.772	-0.014191	0.15854	-0.042877	-0.002289	0.02533	-0.019836	0.21988	0.009308	-0.090637	-0.045929	-0.014343	0.003967	-0.028534	0.013275	-0.016937	0.001526	0.020752	-0.43655	-0.86746	-0.083313	0.29862	0.14694	0.33524	0.070953	-0.074921	0.038147	-0.009155	0.15411	0.27222	-0.22339	-0.001831	-0.005341
23.773	-0.002899	0.21286	-0.037689	-0.003357	0.013885	-0.017548	0.18616	0.004425	-0.080109	-0.007935	0.020294	0.009766	-0.079498	0.023193	0.045013	0.003357	-0.046539	-0.55756	-0.81329	0.026855	0.21057	-0.061493	0.22736	0.21118	-0.009918	-0.00412	0.031281	-0.045929	0.22842	-0.18219	-0.002441	-0.009308
23.774	0.003662	0.29266	-0.009308	-0.006561	0.005493	-0.003052	0.17883	0.011444	-0.067902	0.013123	0.11841	0.003357	-0.11749	0.074768	0.28946	0.011902	-0.036469	-0.71014	-0.68939	0.11475	-0.23132	-0.23483	0.2298	0.10574	-0.11078	-0.04837	0.041962	0.013885	0.60944	-0.25635	-0.007629	-0.005646
23.775	0.005493	0.38116	0.006409	-0.002441	0.011597	-0.017395	0.18478	0.006866	-0.055695	-0.022736	0.32272	-0.002136	-0.11826	0.15305	0.73563	0.017395	-0.041504	-0.81802	-0.63751	0.21316	-0.50125	-0.35828	0.03006	-0.032196	-0.1622	-0.097046	0.091858	-0.090027	0.59509	-0.42893	-0.001526	-0.015869
23.776	0.005035	0.41245	0.047607	0.001831	0.014648	-0.017242	0.17761	0.013885	-0.022888	-0.056305	-0.00412	-0.000458	-0.057526	0.17654	0.50827	0.023804	-0.040436	-0.94177	-0.32944	0.22217	-0.50522	-0.42618	-0.23148	0.016785	-0.11826	-0.11078	0.074768	-0.24246	0.20859	-0.29404	-0.005798	-0.009766
23.777	0.00473	0.40054	0.09552	0.019226	0.021973	-0.042419	0.17441	0.005798	-0.007935	-0.037994	-0.086823	-0.007019	-0.062561	0.13504	0.068512	0.019684	-0.027924	-1.0938	-0.86166	0.18539	-0.11917	-0.015411	-0.14481	0.10544	0.023956	-0.15839	0.056763	-0.024719	-0.033112	0.3447	-0.004425	0
23.778	0.003815	0.42954	0.16235	0.008698	0.018311	-0.029755	0.18387	0.001984	0.011749	-0.005646	-0.10574	0.015411	-0.099792	0.099335	-0.25314	0.003662	-0.028839	-1.2949	-0.90027	0.032043	0.41443	0.38711	0.12238	0.14206	0.13336	-0.050354	0.071411	0.001831	-0.81757	0.31006	0.000153	-0.006714
23.779	-0.003662	0.41184	0.16266	0.009155	0.010681	0.006104	0.17624	0.00824	0.027161	0.002747	-0.083466	-0.006866	-0.067596	0.083008	-0.2005	-0.003357	0.001221	-1.4441	-0.94818	-0.15808	0.14511	0.59387	0.27802	0.12589	0.31265	0.051422	0.16754	-0.006409	-1.4809	-0.12039	-0.000153	-0.014496
23.78	-0.009308	0.45029	0.11597	0.002899	0.012512	0.01236	0.15518	0.00412	0.025177	-0.014648	-0.14786	0.007172	-0.069733	0.11398	-0.13931	0.007935	-0.019226	-1.5652	-1.194	-0.13031	0.17807	0.62378	0.15823	0.069427	0.28946	0.071564	0.12283	0.081177	-1.6316	-0.63187	-0.002899	-0.013733
23.781	0.00351	0.5336	0.070496	0.017853	0.010071	0.017853	0.18234	0.002136	0.045166	-0.020905	0.010223	0.014496	-0.045624	0.10437	-0.052948	0.011444	-0.033722	-1.6008	-0.85831	-0.10056	0.25009	0.46921	0.027161	0.048218	0.16892	0.001678	0.094452	-0.083923	-0.37537	-0.73944	-0.003967	-0.021515
23.782	0.005646	0.54611	0.080414	-0.015717	0.013733	-0.001831	0.15457	0.013275	0.059052	0.002289	0.093689	0.006714	-0.075073	0.074615	-0.1239	0.017242	0.024872	-1.636	-0.63858	0.050049	0.028534	0.20355	0.050507	-0.003357	-0.015869	-0.009766	0.055084	0.068054	1.0039	-0.16312	0.000916	-0.020142
23.783	0.005188	0.62729	0.12436	-0.022888	0.012817	-0.007629	0.15823	0.006409	0.085297	0.010071	-0.014954	0.01236	-0.089264	0.063324	-0.14954	0.005341	0.018311	-1.5384	-0.11673	0.07431	0.11063	-0.21637	0.054626	0.055237	-0.23468	0.022888	0.071564	-0.020905	0.53543	0.40436	-0.004272	-0.023804
23.784	0.005646	0.62561	0.1329	-0.030365	0.012512	-0.032959	0.19012	0.003967	0.094299	0.000458	-0.056915	-0.00351	-0.11017	0.13687	-0.08255	0.00885	-0.040436	-1.4005	-0.13794	0.062103	0.22919	-0.50766	-0.065613	0.11917	-0.45929	0.04837	0.040741	-0.050049	1.0054	0.3067	-0.005798	-0.024719
23.785	0.001068	0.69839	0.13382	-0.0354	0.005341	-0.02243	0.26825	0.012054	0.093536	0.014038	-0.017853	0.010223	-0.112	0.11353	0.31662	-0.002136	-0.034332	-1.2593	0.38162	0.081329	-0.015717	-0.52795	0.030212	0.041199	-0.1973	0.058746	-0.001831	-0.028229	0.62454	-0.1062	-0.001526	-0.025787
23.786	-0.007782	0.70038	0.11063	-0.030518	0.00946	-0.026855	0.27832	0.002289	0.11932	0.002289	-0.000153	0.013885	-0.052338	0.13596	0.054626	0.00351	-0.020142	-1.3113	0.4126	0.1033	-0.66834	-0.46799	0.079193	0.071564	0.005951	0.077209	0.041504	-0.042419	0.25085	-0.14771	-0.002289	-0.028687
23.787	0.00351	0.7283	0.10086	-0.029144	0.011749	-0.02121	0.17258	0.009155	0.11337	0.007172	-0.14114	0.001678	0.012207	-0.005341	-0.021057	-0.000153	-0.017242	-1.4111	0.2182	0.14038	-0.34531	-0.44144	0.13473	0.08667	-0.037384	0.004272	0.090637	-0.041046	0.30395	-0.048828	-0.005341	-0.017853
